<svg width="24" height="24" viewBox="0 0 24 24" fill="none" xmlns="http://www.w3.org/2000/svg">
<path d="M5.856 6.84012C5.74176 6.77851 5.61348 6.7476 5.48371 6.75042C5.35395 6.75324 5.22713 6.78969 5.11567 6.8562C5.00421 6.92272 4.91192 7.01702 4.84782 7.12988C4.78373 7.24275 4.75002 7.37032 4.75 7.50012V17.0001C4.75 17.199 4.82902 17.3898 4.96967 17.5305C5.11032 17.6711 5.30109 17.7501 5.5 17.7501C5.69891 17.7501 5.88968 17.6711 6.03033 17.5305C6.17098 17.3898 6.25 17.199 6.25 17.0001V8.75612L11.644 11.6601C11.866 11.7801 12.134 11.7801 12.356 11.6601L17.75 8.75612V17.0001C17.75 17.199 17.829 17.3898 17.9697 17.5305C18.1103 17.6711 18.3011 17.7501 18.5 17.7501C18.6989 17.7501 18.8897 17.6711 19.0303 17.5305C19.171 17.3898 19.25 17.199 19.25 17.0001V7.50012C19.25 7.37032 19.2163 7.24275 19.1522 7.12988C19.0881 7.01702 18.9958 6.92272 18.8843 6.8562C18.7729 6.78969 18.6461 6.75324 18.5163 6.75042C18.3865 6.7476 18.2582 6.77851 18.144 6.84012L12 10.1481L5.856 6.84012Z" fill="black"/>
<path fill-rule="evenodd" clip-rule="evenodd" d="M17.3099 3.722C13.777 3.40614 10.2229 3.40614 6.68994 3.722L5.17194 3.857C4.38123 3.9276 3.6374 4.26268 3.06058 4.8081C2.48376 5.35353 2.10763 6.07747 1.99294 6.863C1.49487 10.2696 1.49487 13.7304 1.99294 17.137C2.10788 17.9225 2.48425 18.6463 3.06125 19.1916C3.63825 19.7368 4.3822 20.0717 5.17294 20.142L6.68894 20.278C10.2229 20.594 13.7769 20.594 17.3109 20.278L18.8279 20.142C19.6185 20.0714 20.3622 19.7365 20.939 19.1913C21.5158 18.646 21.892 17.9223 22.0069 17.137C22.505 13.7304 22.505 10.2696 22.0069 6.863C21.8922 6.07731 21.5159 5.35326 20.9389 4.80781C20.3619 4.26237 19.6178 3.92739 18.8269 3.857L17.3099 3.722ZM6.82394 5.216C10.2684 4.90803 13.7335 4.90803 17.1779 5.216L18.6949 5.352C19.1497 5.39239 19.5776 5.5849 19.9095 5.89845C20.2413 6.21199 20.4578 6.62825 20.5239 7.08C21.001 10.3426 21.001 13.6573 20.5239 16.92C20.4578 17.3717 20.2413 17.788 19.9095 18.1015C19.5776 18.4151 19.1497 18.6076 18.6949 18.648L17.1779 18.784C13.7339 19.092 10.2679 19.092 6.82394 18.784L5.30694 18.648C4.85217 18.6076 4.42429 18.4151 4.09242 18.1015C3.76055 17.788 3.54407 17.3717 3.47794 16.92C3.00091 13.6573 3.00091 10.3427 3.47794 7.08C3.54407 6.62825 3.76055 6.21199 4.09242 5.89845C4.42429 5.5849 4.85217 5.39239 5.30694 5.352L6.82394 5.216Z" fill="black"/>
</svg>
